<?xml version="1.0" standalone="no"?>
<svg xmlns="http://www.w3.org/2000/svg" viewBox="0 0 181.05859375 52" width="181.05859375" height="52"><rect fill="none" stroke="#000000" stroke-width="3" width="178.05859375" height="49" x="1.5" y="1.5"></rect><g fill="#000000" color="#000000" transform="translate(12, 12) scale(0.5384616)"><svg width="52.0" height="52.0" x="0.0" y="0.0" viewBox="0 0 52 52"><path fill="currentColor" fill-rule="evenodd" d="M18.22 33.35s9.278 9.366 25.673 11.515a26.024 26.024 0 0 1-4.652 3.512l-.054.034a25.875 25.875 0 0 1-13.82 3.58 26.054 26.054 0 0 1-4.701-.545c-.167-.035-.333-.078-.5-.116-2.487-6.099-2.5-12.173-2.247-15.465.12-1.574.301-2.515.301-2.515zM15.745 22.9S12.273 35.616 18.61 50.89a26.12 26.12 0 0 1-5.368-2.273l-.055-.03A25.865 25.865 0 0 1 3.175 38.408a26.147 26.147 0 0 1-1.878-4.343c-.054-.163-.099-.328-.15-.492 4.038-5.202 9.293-8.25 12.27-9.678 1.423-.683 2.328-.997 2.328-.997zm35.536-2.96c.445 1.86.695 3.795.716 5.786l.002.064a25.868 25.868 0 0 1-3.81 13.76 26.134 26.134 0 0 1-2.821 3.797c-.115.127-.235.249-.352.374-6.524-.895-11.79-3.921-14.516-5.786-1.302-.892-2.026-1.517-2.026-1.517S41.223 33.065 51.28 19.94zM6.983 8.25c6.525.895 11.792 3.922 14.517 5.786 1.302.89 2.026 1.517 2.026 1.517S10.778 18.904.718 32.028a26.047 26.047 0 0 1-.715-5.784L0 26.181A25.871 25.871 0 0 1 3.81 12.42a26.18 26.18 0 0 1 2.822-3.797c.114-.128.235-.25.351-.375zM33.39 1.07a26.021 26.021 0 0 1 5.368 2.272l.055.03a25.864 25.864 0 0 1 10.012 10.18 25.98 25.98 0 0 1 1.878 4.342c.053.163.098.327.149.492-4.038 5.203-9.292 8.25-12.27 9.678-1.422.682-2.327.997-2.327.997s3.471-12.719-2.865-27.991zM26.134 0l.503.007c1.582.04 3.157.221 4.7.545.167.036.333.079.5.117 2.487 6.098 2.499 12.172 2.247 15.465-.12 1.573-.301 2.515-.301 2.515S24.506 9.283 8.11 7.135a26.1 26.1 0 0 1 4.651-3.513c.019-.01.036-.023.055-.033A25.877 25.877 0 0 1 26.637.009z"></path></svg></g><path fill="#000000" fill-rule="nonzero" d="M9.85 17.17Q8.99 17.86 7.62 18.23Q6.25 18.61 4.25 18.61Q2.25 18.61 0 18.25L0 18.25L0 2.80Q2.27 2.44 3.94 2.44Q5.61 2.44 6.69 2.75Q7.76 3.07 8.44 3.61L8.44 3.61Q9.77 4.65 9.77 6.31Q9.77 7.97 8.57 9.06L8.57 9.06Q10.00 9.50 10.78 10.75L10.78 10.75Q11.50 11.86 11.50 13.21Q11.50 14.57 11.10 15.53Q10.71 16.49 9.85 17.17ZM3.11 4.97L3.11 8.63Q3.60 8.71 4.34 8.71Q5.07 8.71 5.55 8.51Q6.02 8.32 6.28 8.03L6.28 8.03Q6.70 7.55 6.70 6.69L6.70 6.69Q6.70 4.90 4.59 4.90L4.59 4.90Q3.70 4.90 3.11 4.97L3.11 4.97ZM4.84 11.13L4.84 11.13Q3.86 11.13 3.11 11.26L3.11 11.26L3.11 15.87Q3.93 16.08 4.83 16.08Q5.73 16.08 6.42 15.86Q7.10 15.64 7.57 15.27L7.57 15.27Q8.52 14.50 8.52 13.30L8.52 13.30Q8.52 11.13 4.84 11.13ZM21.82 17.59L21.82 17.59Q20.16 18.49 18.81 18.49Q17.46 18.49 16.50 18.24Q15.54 17.99 14.87 17.50L14.87 17.50Q13.51 16.50 13.51 14.61L13.51 14.61Q13.51 12.93 15.18 11.80L15.18 11.80Q16.98 10.58 20.07 10.58L20.07 10.58L20.54 10.59Q20.68 10.61 20.86 10.61Q21.04 10.62 21.18 10.64L21.18 10.64Q21.08 8.77 19.56 8.45L19.56 8.45Q19.05 8.34 18.49 8.34Q17.92 8.34 17.37 8.44Q16.83 8.54 16.31 8.71L16.31 8.71Q15.18 9.07 14.68 9.54L14.68 9.54L14.65 9.52L14.30 6.93Q16.37 5.84 18.83 5.84L18.83 5.84Q22.65 5.84 23.72 8.59L23.72 8.59Q24.06 9.47 24.06 10.57L24.06 10.57L24.06 14.81Q24.06 16.17 25.02 16.66L25.02 16.66L22.90 18.61Q22.23 18.26 21.82 17.59ZM21.19 15.20L21.19 12.75Q20.87 12.69 20.53 12.69L20.53 12.69L20.06 12.69Q17.47 12.69 16.77 13.84L16.77 13.84Q16.56 14.18 16.56 14.55Q16.56 14.93 16.69 15.22Q16.83 15.50 17.14 15.69L17.14 15.69Q17.75 16.04 18.96 16.04Q20.16 16.04 21.20 15.47L21.20 15.47Q21.19 15.34 21.19 15.20L21.19 15.20ZM37.02 14.32L37.29 17.18Q35.98 18.49 33.18 18.49L33.18 18.49Q30.46 18.49 28.73 16.84L28.73 16.84Q26.99 15.16 26.99 12.39L26.99 12.39Q26.99 9.56 28.71 7.75L28.71 7.75Q30.54 5.84 33.60 5.84L33.60 5.84Q35.77 5.84 37.23 6.79L37.23 6.79L36.76 9.79L36.68 9.77Q36.12 9.09 35.50 8.88L35.50 8.88Q34.49 8.53 33.48 8.53Q32.47 8.53 31.90 8.79Q31.32 9.05 30.91 9.50L30.91 9.50Q30.09 10.44 30.09 11.99L30.09 11.99Q30.09 14.73 31.99 15.57L31.99 15.57Q32.65 15.86 33.38 15.86Q34.11 15.86 34.66 15.73Q35.20 15.60 35.65 15.38L35.65 15.38Q36.60 14.91 36.94 14.29L36.94 14.29L37.02 14.32ZM47.82 17.59L47.82 17.59Q46.16 18.49 44.81 18.49Q43.46 18.49 42.50 18.24Q41.54 17.99 40.88 17.50L40.88 17.50Q39.52 16.50 39.52 14.61L39.52 14.61Q39.52 12.93 41.18 11.80L41.18 11.80Q42.98 10.58 46.08 10.58L46.08 10.58L46.55 10.59Q46.69 10.61 46.86 10.61Q47.04 10.62 47.18 10.64L47.18 10.64Q47.09 8.77 45.56 8.45L45.56 8.45Q45.06 8.34 44.49 8.34Q43.92 8.34 43.38 8.44Q42.83 8.54 42.32 8.71L42.32 8.71Q41.18 9.07 40.69 9.54L40.69 9.54L40.65 9.52L40.30 6.93Q42.38 5.84 44.84 5.84L44.84 5.84Q48.66 5.84 49.72 8.59L49.72 8.59Q50.06 9.47 50.06 10.57L50.06 10.57L50.06 14.81Q50.06 16.17 51.02 16.66L51.02 16.66L48.90 18.61Q48.23 18.26 47.82 17.59ZM47.19 15.20L47.19 12.75Q46.88 12.69 46.54 12.69L46.54 12.69L46.07 12.69Q43.48 12.69 42.77 13.84L42.77 13.84Q42.56 14.18 42.56 14.55Q42.56 14.93 42.70 15.22Q42.83 15.50 43.15 15.69L43.15 15.69Q43.76 16.04 44.96 16.04Q46.16 16.04 47.20 15.47L47.20 15.47Q47.19 15.34 47.19 15.20L47.19 15.20ZM56.48 9.79L56.48 17.00Q56.48 18.01 56.53 18.32L56.53 18.32L53.61 18.32L53.61 6.07L56.48 6.07L56.48 6.97Q57.48 5.84 58.58 5.84Q59.67 5.84 60.30 6.11L60.30 6.11L60.09 9.26L60.05 9.29Q59.64 8.57 58.35 8.57L58.35 8.57Q57.86 8.57 57.35 8.90Q56.84 9.23 56.48 9.79L56.48 9.79ZM67.17 15.74L67.17 15.74Q68.68 15.74 69.25 14.95L69.25 14.95L69.34 14.95L69.38 17.67Q68.80 18.25 67.24 18.43L67.24 18.43Q66.82 18.49 66.19 18.49Q65.57 18.49 64.83 18.26Q64.10 18.02 63.59 17.50L63.59 17.50Q62.52 16.41 62.52 14.09L62.52 14.09L62.52 8.77L60.75 8.77Q60.74 8.43 60.74 8.07L60.74 8.07L60.74 6.27Q60.74 6.07 60.75 6.07L60.75 6.07L62.52 6.07L62.52 2.73L65.39 2.73L65.39 6.07L68.61 6.07L68.61 8.77L65.39 8.77L65.39 13.55Q65.39 15.39 66.41 15.64L66.41 15.64Q66.74 15.74 67.17 15.74ZM71.17 12.29L71.17 12.29Q71.17 10.92 71.64 9.75Q72.11 8.58 72.96 7.70L72.96 7.70Q74.79 5.84 77.74 5.84L77.74 5.84Q80.24 5.84 81.75 7.49L81.75 7.49Q83.24 9.08 83.24 11.50L83.24 11.50Q83.24 12.42 83.10 12.76L83.10 12.76Q81.93 13.09 78.33 13.09L78.33 13.09L74.20 13.09Q74.51 14.34 75.62 15.04Q76.73 15.74 78.52 15.74L78.52 15.74Q80.38 15.74 81.71 15.07L81.71 15.07Q82.07 14.89 82.24 14.74L82.24 14.74Q82.22 15.23 82.18 15.75L82.18 15.75L82.05 17.58Q81.16 18.19 79.17 18.42L79.17 18.42Q78.59 18.49 78.05 18.49L78.05 18.49Q75.07 18.49 73.13 16.76L73.13 16.76Q71.17 15.01 71.17 12.29ZM80.12 10.82L80.12 10.82Q79.64 8.30 77.38 8.30L77.38 8.30Q75.60 8.30 74.67 9.83L74.67 9.83Q74.39 10.30 74.24 10.86L74.24 10.86Q74.52 10.88 74.93 10.89L74.93 10.89L75.80 10.89Q76.23 10.90 76.63 10.90L76.63 10.90L77.30 10.90Q77.89 10.90 78.47 10.89L78.47 10.89L79.43 10.85Q79.82 10.84 80.12 10.82ZM88.93 15.06L88.93 15.06Q88.50 15.63 88.50 15.97Q88.50 16.30 88.61 16.48Q88.71 16.66 89.06 16.83L89.06 16.83Q89.84 17.19 91.61 17.47Q93.38 17.74 94.38 18.15Q95.38 18.56 96 19.16L96 19.16Q97.16 20.30 97.16 22.38Q97.16 24.47 95.70 25.59Q94.23 26.71 91.35 26.71L91.35 26.71Q88.44 26.71 86.66 25.44L86.66 25.44Q84.88 24.18 84.83 22.08L84.83 22.08Q84.76 19.64 86.74 18.55L86.74 18.55Q86.20 18.11 86.02 17.50Q85.84 16.90 85.84 16.13L85.84 16.13Q85.84 14.82 86.98 13.92L86.98 13.92Q85.65 12.67 85.65 10.80L85.65 10.80Q85.65 8.72 87.15 7.31L87.15 7.31Q88.73 5.84 91.25 5.84L91.25 5.84Q92.58 5.84 93.74 6.33L93.74 6.33Q95.26 5.68 95.98 5.20Q96.69 4.71 96.89 4.49L96.89 4.49L96.96 4.50Q97.07 4.78 97.21 5.30L97.21 5.30L97.42 6.14Q97.70 7.18 97.76 7.57L97.76 7.57Q97.24 8.13 95.94 8.37L95.94 8.37Q96.45 9.34 96.45 10.43Q96.45 11.52 96.07 12.40Q95.70 13.29 95.00 13.96L95.00 13.96Q93.47 15.40 91.09 15.40L91.09 15.40Q89.93 15.40 88.93 15.06ZM88.63 9.79L88.63 9.79Q88.46 10.21 88.46 10.64Q88.46 11.07 88.65 11.47Q88.83 11.87 89.18 12.19L89.18 12.19Q89.96 12.89 91.23 12.89L91.23 12.89Q92.19 12.89 92.89 12.25L92.89 12.25Q93.63 11.54 93.63 10.55Q93.63 9.56 92.96 8.95Q92.30 8.34 91.13 8.34L91.13 8.34Q89.19 8.34 88.63 9.79ZM91.50 24.22L91.50 24.22Q94.38 24.22 94.38 22.21L94.38 22.21Q94.38 21.25 93.45 20.66L93.45 20.66Q92.39 19.99 89.82 19.62L89.82 19.62L89.21 19.51Q88.44 19.92 88.08 20.57Q87.71 21.21 87.72 21.79Q87.73 22.37 88.00 22.79Q88.27 23.21 88.75 23.53L88.75 23.53Q89.81 24.22 91.50 24.22ZM102.02 4.48L99.39 2.58Q100.32 1.11 101.34 0L101.34 0L103.86 1.98Q103.36 2.60 102.93 3.20L102.93 3.20Q102.93 3.20 102.02 4.48L102.02 4.48ZM102.47 6.07L102.47 17.00Q102.47 18.01 102.52 18.32L102.52 18.32L99.54 18.32L99.54 6.07L102.47 6.07ZM113.86 17.59L113.86 17.59Q112.20 18.49 110.85 18.49Q109.50 18.49 108.54 18.24Q107.58 17.99 106.91 17.50L106.91 17.50Q105.55 16.50 105.55 14.61L105.55 14.61Q105.55 12.93 107.21 11.80L107.21 11.80Q109.02 10.58 112.11 10.58L112.11 10.58L112.58 10.59Q112.72 10.61 112.90 10.61Q113.07 10.62 113.21 10.64L113.21 10.64Q113.12 8.77 111.60 8.45L111.60 8.45Q111.09 8.34 110.53 8.34Q109.96 8.34 109.41 8.44Q108.87 8.54 108.35 8.71L108.35 8.71Q107.21 9.07 106.72 9.54L106.72 9.54L106.69 9.52L106.34 6.93Q108.41 5.84 110.87 5.84L110.87 5.84Q114.69 5.84 115.76 8.59L115.76 8.59Q116.10 9.47 116.10 10.57L116.10 10.57L116.10 14.81Q116.10 16.17 117.06 16.66L117.06 16.66L114.94 18.61Q114.27 18.26 113.86 17.59ZM113.23 15.20L113.23 12.75Q112.91 12.69 112.57 12.69L112.57 12.69L112.10 12.69Q109.51 12.69 108.81 13.84L108.81 13.84Q108.60 14.18 108.60 14.55Q108.60 14.93 108.73 15.22Q108.87 15.50 109.18 15.69L109.18 15.69Q109.79 16.04 110.99 16.04Q112.20 16.04 113.24 15.47L113.24 15.47Q113.23 15.34 113.23 15.20L113.23 15.20Z" transform="translate(52 16.841796875)"></path></svg>